<svg xmlns="http://www.w3.org/2000/svg" viewBox="14 0 452 286" role="img">
<line x1="52" y1="250" x2="442" y2="250" stroke="#393A3B" stroke-width="1.4"/>
<line x1="60" y1="258" x2="60" y2="28" stroke="#393A3B" stroke-width="1.4"/>
<text x="450" y="257" font-family="sans-serif" font-size="21" font-style="italic" fill="#393A3B">p</text>
<text x="50" y="24" font-family="sans-serif" font-size="21" font-style="italic" fill="#393A3B">q</text>
<line x1="132.0" y1="250" x2="132.0" y2="256" stroke="#393A3B" stroke-width="1.3"/>
<text x="132.0" y="276" text-anchor="middle" font-family="sans-serif" font-size="19" fill="#393A3B">10</text>
<line x1="204.0" y1="250" x2="204.0" y2="256" stroke="#393A3B" stroke-width="1.3"/>
<text x="204.0" y="276" text-anchor="middle" font-family="sans-serif" font-size="19" fill="#393A3B">20</text>
<line x1="276.0" y1="250" x2="276.0" y2="256" stroke="#393A3B" stroke-width="1.3"/>
<text x="276.0" y="276" text-anchor="middle" font-family="sans-serif" font-size="19" fill="#393A3B">30</text>
<line x1="348.0" y1="250" x2="348.0" y2="256" stroke="#393A3B" stroke-width="1.3"/>
<text x="348.0" y="276" text-anchor="middle" font-family="sans-serif" font-size="19" fill="#393A3B">40</text>
<line x1="420.0" y1="250" x2="420.0" y2="256" stroke="#393A3B" stroke-width="1.3"/>
<text x="420.0" y="276" text-anchor="middle" font-family="sans-serif" font-size="19" fill="#393A3B">50</text>
<line x1="54" y1="215.0" x2="60" y2="215.0" stroke="#393A3B" stroke-width="1.3"/>
<text x="48" y="221.5" text-anchor="end" font-family="sans-serif" font-size="19" fill="#393A3B">20</text>
<line x1="54" y1="180.0" x2="60" y2="180.0" stroke="#393A3B" stroke-width="1.3"/>
<text x="48" y="186.5" text-anchor="end" font-family="sans-serif" font-size="19" fill="#393A3B">40</text>
<line x1="54" y1="145.0" x2="60" y2="145.0" stroke="#393A3B" stroke-width="1.3"/>
<text x="48" y="151.5" text-anchor="end" font-family="sans-serif" font-size="19" fill="#393A3B">60</text>
<line x1="54" y1="110.0" x2="60" y2="110.0" stroke="#393A3B" stroke-width="1.3"/>
<text x="48" y="116.5" text-anchor="end" font-family="sans-serif" font-size="19" fill="#393A3B">80</text>
<line x1="54" y1="75.0" x2="60" y2="75.0" stroke="#393A3B" stroke-width="1.3"/>
<text x="48" y="81.5" text-anchor="end" font-family="sans-serif" font-size="19" fill="#393A3B">100</text>
<line x1="54" y1="40.0" x2="60" y2="40.0" stroke="#393A3B" stroke-width="1.3"/>
<text x="48" y="46.5" text-anchor="end" font-family="sans-serif" font-size="19" fill="#393A3B">120</text>
<line x1="60.0" y1="75.0" x2="420.0" y2="250.0" stroke="#912040" stroke-width="2.1" stroke-linecap="round"/>
<text x="428.0" y="240.0" font-family="sans-serif" font-size="21" font-weight="700" font-style="italic" fill="#912040">D</text>
</svg>
