<svg xmlns="http://www.w3.org/2000/svg" viewBox="0 0 400 410" role="img">
<polygon points="60,370 106,232 198,48 152,186" fill="#eed7df" stroke="none"/>
<line x1="106" y1="370" x2="106" y2="48" stroke="#e9e3e4" stroke-width="1.1" stroke-dasharray="4 4"/>
<line x1="152" y1="370" x2="152" y2="48" stroke="#e9e3e4" stroke-width="1.1" stroke-dasharray="4 4"/>
<line x1="198" y1="370" x2="198" y2="48" stroke="#e9e3e4" stroke-width="1.1" stroke-dasharray="4 4"/>
<line x1="60" y1="324" x2="216.4" y2="324" stroke="#e9e3e4" stroke-width="1.1" stroke-dasharray="4 4"/>
<line x1="60" y1="278" x2="216.4" y2="278" stroke="#e9e3e4" stroke-width="1.1" stroke-dasharray="4 4"/>
<line x1="60" y1="232" x2="216.4" y2="232" stroke="#e9e3e4" stroke-width="1.1" stroke-dasharray="4 4"/>
<line x1="60" y1="186" x2="216.4" y2="186" stroke="#e9e3e4" stroke-width="1.1" stroke-dasharray="4 4"/>
<line x1="60" y1="140" x2="216.4" y2="140" stroke="#e9e3e4" stroke-width="1.1" stroke-dasharray="4 4"/>
<line x1="60" y1="94" x2="216.4" y2="94" stroke="#e9e3e4" stroke-width="1.1" stroke-dasharray="4 4"/>
<line x1="60" y1="48" x2="216.4" y2="48" stroke="#e9e3e4" stroke-width="1.1" stroke-dasharray="4 4"/>
<line x1="52" y1="370" x2="225.6" y2="370" stroke="#393A3B" stroke-width="1.5"/>
<line x1="60" y1="378" x2="60" y2="29.6" stroke="#393A3B" stroke-width="1.5"/>
<text x="106" y="394" font-family="sans-serif" font-size="17" fill="#393A3B" font-weight="700" text-anchor="middle">1</text>
<text x="152" y="394" font-family="sans-serif" font-size="17" fill="#393A3B" font-weight="700" text-anchor="middle">2</text>
<text x="198" y="394" font-family="sans-serif" font-size="17" fill="#393A3B" font-weight="700" text-anchor="middle">3</text>
<text x="50" y="284" font-family="sans-serif" font-size="17" fill="#393A3B" font-weight="700" text-anchor="end">2</text>
<text x="50" y="192" font-family="sans-serif" font-size="17" fill="#393A3B" font-weight="700" text-anchor="end">4</text>
<text x="50" y="100" font-family="sans-serif" font-size="17" fill="#393A3B" font-weight="700" text-anchor="end">6</text>
<line x1="106" y1="232" x2="198" y2="48" stroke="#393A3B" stroke-width="1.6" stroke-dasharray="6 5"/>
<line x1="152" y1="186" x2="198" y2="48" stroke="#393A3B" stroke-width="1.6" stroke-dasharray="6 5"/>
<line x1="60.0" y1="370.0" x2="103.5" y2="239.5" stroke="#912040" stroke-width="2.6" stroke-linecap="round"/>
<polygon points="106.0,232.0 107.1,242.9 98.6,240.1" fill="#912040"/>
<line x1="60.0" y1="370.0" x2="148.5" y2="193.1" stroke="#393A3B" stroke-width="2.6" stroke-linecap="round"/>
<polygon points="152.0,186.0 151.5,197.0 143.5,193.0" fill="#393A3B"/>
<text x="98" y="224" font-family="sans-serif" font-size="19" fill="#912040" font-weight="700" font-style="italic" text-anchor="end">(1, 3)</text>
<text x="162" y="190" font-family="sans-serif" font-size="19" fill="#393A3B" font-weight="700" font-style="italic">(2, 4)</text>
</svg>
